<?xml version="1.0" encoding="UTF-8" standalone="no"?>
<!-- Uploaded to: SVG Repo, www.svgrepo.com, Generator: SVG Repo Mixer Tools -->

<svg
   width="581.80743"
   height="743.30396"
   viewBox="-5.5 0 18.908742 24.157379"
   version="1.1"
   id="svg1"
   sodipodi:docname="chevron-right-thick-red-white.svg"
   inkscape:version="1.4.3 (0d15f75, 2025-12-25)"
   xmlns:inkscape="http://www.inkscape.org/namespaces/inkscape"
   xmlns:sodipodi="http://sodipodi.sourceforge.net/DTD/sodipodi-0.dtd"
   xmlns="http://www.w3.org/2000/svg"
   xmlns:svg="http://www.w3.org/2000/svg"
   xmlns:rdf="http://www.w3.org/1999/02/22-rdf-syntax-ns#"
   xmlns:cc="http://creativecommons.org/ns#"
   xmlns:dc="http://purl.org/dc/elements/1.1/"
   xmlns:sketch="http://www.bohemiancoding.com/sketch/ns">
  <sodipodi:namedview
     id="namedview1"
     pagecolor="#8c8c8c"
     bordercolor="#000000"
     borderopacity="0.25"
     inkscape:showpageshadow="2"
     inkscape:pageopacity="0.0"
     inkscape:pagecheckerboard="0"
     inkscape:deskcolor="#d1d1d1"
     inkscape:zoom="0.33375"
     inkscape:cx="284.64419"
     inkscape:cy="326.59176"
     inkscape:current-layer="svg1" />
  <title
     id="title1">chevron-right</title>
  <desc
     id="desc1">Created with Sketch Beta.</desc>
  <defs
     id="defs1" />
  <g
     id="g2"
     stroke="none"
     stroke-width="1"
     fill="none"
     fill-rule="evenodd"
     sketch:type="MSPage"
     transform="translate(-5.50575,-0.97)"
     style="fill:#ffffff;fill-opacity:1">
    <g
       id="g1"
       sketch:type="MSLayerGroup"
       transform="translate(-474,-1196)"
       fill="#000000"
       style="fill:#ffffff;fill-opacity:1">
      <path
         d="m 488.404,1207.36 -10.767,-9.76 c -0.831,-0.84 -2.178,-0.84 -3.008,0 -0.831,0.83 -0.831,2.17 0,3 l 9.256,8.4 -9.256,8.4 c -0.831,0.83 -0.831,2.17 0,3 0.83,0.84 2.177,0.84 3.008,0 l 10.767,-9.76 c 0.45,-0.45 0.648,-1.05 0.611,-1.64 0.037,-0.59 -0.161,-1.19 -0.611,-1.64"
         id="path1"
         sketch:type="MSShapeGroup"
         style="fill:#ffffff;fill-opacity:1" />
    </g>
  </g>
  <metadata
     id="metadata2">
    <rdf:RDF>
      <cc:Work
         rdf:about="">
        <dc:title>chevron-right</dc:title>
      </cc:Work>
    </rdf:RDF>
  </metadata>
  <g
     id="g4"
     stroke="none"
     stroke-width="1"
     fill="none"
     fill-rule="evenodd"
     sketch:type="MSPage"
     transform="translate(-1.6106189,-0.8726217)"
     style="fill:#fb001d;fill-opacity:1">
    <g
       id="g3"
       sketch:type="MSLayerGroup"
       transform="translate(-474,-1196)"
       fill="#000000"
       style="fill:#fb001d;fill-opacity:1">
      <path
         d="m 488.404,1207.36 -10.767,-9.76 c -0.831,-0.84 -2.178,-0.84 -3.008,0 -0.831,0.83 -0.831,2.17 0,3 l 9.256,8.4 -9.256,8.4 c -0.831,0.83 -0.831,2.17 0,3 0.83,0.84 2.177,0.84 3.008,0 l 10.767,-9.76 c 0.45,-0.45 0.648,-1.05 0.611,-1.64 0.037,-0.59 -0.161,-1.19 -0.611,-1.64"
         id="path2"
         sketch:type="MSShapeGroup"
         style="fill:#fb001d;fill-opacity:1" />
    </g>
  </g>
</svg>
